# xmcd
#
# Track frame offsets: 
#        150
#        12731
#        27732
#        39161
#        51984
#        64718
#        77823
#        88219
#        101016
#        114167
#        129161
#        147355
#        165374
#        182889
#        200787
#        218880
#        243393
#
# Disc length: 3443 seconds
#
# Revision: 0
# Processed by: cddbd v1.5.2PL0 Copyright (c) Steve Scherf et al.
# Submitted via: ExactAudioCopy v0.95b4
#
DISCID=f20d7111
DTITLE=Various Artist - This Is... Soul! CD1
DYEAR=2007
DGENRE=Soul
TTITLE0=James Brown - I Got You (I Feel Good)
TTITLE1=Edwin Starr - War
TTITLE2=The Temptations /Ain't To Proud To Beg
TTITLE3=The Supremer - You Can't Hurry Love
TTITLE4=Isley Brothers - This Old Heart Of Mine (Is Weak For You)
TTITLE5=Jimmy Ruffin - What Becomes Of The Broken Hearted
TTITLE6=Curtis Mayfield and The Impressions - Gypsy Woman
TTITLE7=Martha Reeves and The Vandellas - Jimmy Mack
TTITLE8=The Jackson 5 - I Want You Back
TTITLE9=Rick James - Super Freak
TTITLE10=Ready For The World - Oh Sheila
TTITLE11=Jody Watley - Looking For A New Love
TTITLE12=Pebbles - Mercedes Boy
TTITLE13=New Edition - Mr. Telephone Man
TTITLE14=Barry White - Can't Get Enough Of Your Love Babe
TTITLE15=The Stylistics - You Make Me Feel Brand New
TTITLE16=Gladys Knight and The Pips - I Don't Want To Do Wrong
EXTD=
EXTT0=
EXTT1=
EXTT2=
EXTT3=
EXTT4=
EXTT5=
EXTT6=
EXTT7=
EXTT8=
EXTT9=
EXTT10=
EXTT11=
EXTT12=
EXTT13=
EXTT14=
EXTT15=
EXTT16=
PLAYORDER=
